<svg width="147" height="54" viewBox="0 0 147 54" fill="none" xmlns="http://www.w3.org/2000/svg">
<path d="M96.8282 24.8654V28.2299H101.536V31.2574H92.1209V21.8427H112.298V11.0803H85.3968C83.1665 11.0803 81.3633 12.8883 81.3633 15.1138V37.9814C81.3633 40.2117 83.1712 42.015 85.3968 42.015H108.264C110.495 42.015 112.298 40.207 112.298 37.9814V24.8654H96.8282Z" fill="#6EC800"/>
<path d="M142.966 11.0755H120.099C117.869 11.0755 116.065 12.8834 116.065 15.109V37.9766C116.065 40.2069 117.873 42.0101 120.099 42.0101H142.966C145.197 42.0101 147 40.2021 147 37.9766V15.109C147 12.8834 145.192 11.0755 142.966 11.0755ZM136.238 31.2525H126.823V21.8378H136.238V31.2525Z" fill="#6EC800"/>
<path d="M59.5064 11.0756L37.232 45.3746H33.374L38.3803 53.0857L54.894 45.3746H50.0633L55.7434 36.629H66.8332V42.0102H77.5955V11.0708H59.5064V11.0756ZM59.2359 31.2526L66.8284 19.5602V31.2526H59.2359Z" fill="#6EC800"/>
<path d="M12.7933 42.0149L22.1273 27.6461V42.0149H35.0488L57.3232 7.71112H60.8111L55.8047 0L39.2864 7.71112H44.3733L32.8849 25.4063V11.0755H20.0536L10.7576 25.3921V11.0755H0V42.0149H12.7933Z" fill="#6EC800"/>
</svg>
